<?xml version="1.0" encoding="utf-8"?>
<!-- Generator: Adobe Illustrator 16.0.0, SVG Export Plug-In . SVG Version: 6.00 Build 0)  -->
<!DOCTYPE svg PUBLIC "-//W3C//DTD SVG 1.0//EN" "http://www.w3.org/TR/2001/REC-SVG-20010904/DTD/svg10.dtd">
<svg version="1.0" id="Layer_1" xmlns="http://www.w3.org/2000/svg" xmlns:xlink="http://www.w3.org/1999/xlink" x="0px" y="0px"
	 width="32px" height="32px" viewBox="0 0 32 32" enable-background="new 0 0 32 32" xml:space="preserve">
<g>
	<g>
		<polygon fill="#3AAD73" points="32,25.998 26,19.998 30,19.998 24,13.998 28,13.998 22,7.998 16,13.998 20,13.998 14,19.998 
			18,19.998 12,25.998 		"/>
		<rect x="20" y="25.998" fill="#4F3923" width="4" height="6"/>
		<g opacity="0.15">
			<polygon points="26,19.998 18,19.998 17,20.998 27,20.998 			"/>
			<polygon points="24,13.998 20,13.998 19,14.998 25,14.998 			"/>
		</g>
		<rect x="20" y="25.998" opacity="0.2" width="4" height="1"/>
		<g opacity="0.15">
			<polygon points="20,11.998 18,11.998 17,12.998 18,13.998 19.414,13.998 18.414,12.998 20,12.998 22.414,12.998 20.707,11.291 
				19.707,10.291 19,10.998 			"/>
			<polygon points="26.414,24.998 24.707,23.291 20.414,18.998 22,18.998 24.414,18.998 22.707,17.291 19.707,14.291 19,14.998 
				22,17.998 18,17.998 24,23.998 14,23.998 13,24.998 24,24.998 			"/>
		</g>
	</g>
	<g>
		<polygon fill="#3AAD73" points="24,23.998 18,17.998 22,17.998 16,11.998 20,11.998 14,5.998 18,5.998 12,-0.002 6,5.998 
			10,5.998 4,11.998 8,11.998 2,17.998 6,17.998 0,23.998 		"/>
		<rect x="10" y="23.998" fill="#4F3923" width="4" height="8"/>
		<g opacity="0.15">
			<polygon points="16,11.998 8,11.998 7,12.998 17,12.998 			"/>
			<polygon points="18,17.998 6,17.998 5,18.998 19,18.998 			"/>
			<polygon points="14,5.998 10,5.998 9,6.998 15,6.998 			"/>
		</g>
		<rect x="10" y="23.998" opacity="0.2" width="4" height="1"/>
	</g>
</g>
<g>
</g>
<g>
</g>
<g>
</g>
<g>
</g>
<g>
</g>
<g>
</g>
</svg>
