<?xml version="1.0" encoding="utf-8"?>
<!-- Generator: Adobe Illustrator 16.0.0, SVG Export Plug-In . SVG Version: 6.00 Build 0)  -->
<!DOCTYPE svg PUBLIC "-//W3C//DTD SVG 1.0//EN" "http://www.w3.org/TR/2001/REC-SVG-20010904/DTD/svg10.dtd">
<svg version="1.0" id="Layer_1" xmlns="http://www.w3.org/2000/svg" xmlns:xlink="http://www.w3.org/1999/xlink" x="0px" y="0px"
	 width="32px" height="32px" viewBox="0 0 32 32" enable-background="new 0 0 32 32" xml:space="preserve">
<g>
	<path fill="#EDD87E" d="M30,30.011c0,1.105-0.896,2-2,2H4c-1.104,0-2-0.895-2-2v-28c0-1.104,0.896-2,2-2h24c1.104,0,2,0.896,2,2
		V30.011z"/>
	<path fill="#434854" d="M30,8.011v-6c0-1.104-0.896-2-2-2H4c-1.104,0-2,0.896-2,2v6H30z"/>
	<g opacity="0.1">
		<rect x="2" y="13.011" width="28" height="1"/>
		<rect x="2" y="16.011" width="28" height="1"/>
		<rect x="2" y="19.011" width="28" height="1"/>
		<rect x="2" y="22.011" width="28" height="1"/>
		<rect x="2" y="25.011" width="28" height="1"/>
	</g>
	<rect x="8" y="8.011" fill="#EF4D4D" width="1" height="24"/>
	<rect x="2" y="7.011" opacity="0.3" width="28" height="1"/>
	<path opacity="0.1" d="M28,31.011H4c-1.104,0-2-0.895-2-2v1c0,1.105,0.896,2,2,2h24c1.104,0,2-0.895,2-2v-1
		C30,30.116,29.104,31.011,28,31.011z"/>
</g>
<g>
</g>
<g>
</g>
<g>
</g>
<g>
</g>
<g>
</g>
<g>
</g>
</svg>
