<?xml version="1.0" encoding="utf-8"?>
<!-- Generator: Adobe Illustrator 16.0.0, SVG Export Plug-In . SVG Version: 6.00 Build 0)  -->
<!DOCTYPE svg PUBLIC "-//W3C//DTD SVG 1.0//EN" "http://www.w3.org/TR/2001/REC-SVG-20010904/DTD/svg10.dtd">
<svg version="1.0" id="Layer_1" xmlns="http://www.w3.org/2000/svg" xmlns:xlink="http://www.w3.org/1999/xlink" x="0px" y="0px"
	 width="32px" height="32px" viewBox="0 0 32 32" enable-background="new 0 0 32 32" xml:space="preserve">
<g>
	<circle fill="#E6E6E6" cx="16" cy="16.038" r="13"/>
	<g>
		<path fill="#469FCC" d="M16,0.038c-8.837,0-16,7.163-16,16s7.163,16,16,16s16-7.163,16-16S24.837,0.038,16,0.038z M16,29.038
			c-7.18,0-13-5.82-13-13s5.82-13,13-13s13,5.82,13,13S23.18,29.038,16,29.038z"/>
		<path fill="#469FCC" d="M16,6.038c-5.522,0-10,4.478-10,10s4.478,10,10,10s10-4.478,10-10S21.522,6.038,16,6.038z M16,23.038
			c-3.866,0-7-3.134-7-7s3.134-7,7-7s7,3.134,7,7S19.866,23.038,16,23.038z"/>
	</g>
	<circle fill="#EF4D4D" cx="16" cy="16.038" r="4"/>
	<g>
		<polygon fill="#EACA44" points="0,4.038 5,9.038 7.535,8.159 2.586,3.21 		"/>
		<polygon fill="#EACA44" points="4,0.038 3.172,2.624 8.121,7.573 9,5.038 		"/>
	</g>
	<path opacity="0.2" d="M16.217,15.821c-0.195-0.196-0.511-0.196-0.707,0L4.35,26.981c0.229,0.243,0.465,0.479,0.707,0.707
		l11.16-11.16C16.413,16.332,16.413,16.017,16.217,15.821z"/>
	<path fill="#434854" d="M16.217,16.255c-0.195,0.196-0.511,0.196-0.707,0L0.204,0.949c-0.196-0.196-0.26-0.575-0.063-0.771l0,0
		c0.195-0.196,0.534-0.173,0.73,0.023l15.346,15.346C16.413,15.744,16.413,16.06,16.217,16.255L16.217,16.255z"/>
</g>
<g>
</g>
<g>
</g>
<g>
</g>
<g>
</g>
<g>
</g>
<g>
</g>
</svg>
