<?xml version="1.0" encoding="utf-8"?>
<!-- Generator: Adobe Illustrator 16.0.0, SVG Export Plug-In . SVG Version: 6.00 Build 0)  -->
<!DOCTYPE svg PUBLIC "-//W3C//DTD SVG 1.0//EN" "http://www.w3.org/TR/2001/REC-SVG-20010904/DTD/svg10.dtd">
<svg version="1.0" id="Layer_1" xmlns="http://www.w3.org/2000/svg" xmlns:xlink="http://www.w3.org/1999/xlink" x="0px" y="0px"
	 width="32px" height="32px" viewBox="0 0 32 32" enable-background="new 0 0 32 32" xml:space="preserve">
<g>
	<path fill="#EDD87E" d="M21.002,21.011v-5h-10v5c-4.971,0-11,3.029-11,8c0,1.657,1.343,3,3,3h26c1.657,0,3-1.343,3-3
		C32.002,24.04,25.973,21.011,21.002,21.011z"/>
	<path fill="#EDD87E" d="M20.002,1.011h-8c-2.209,0-4,1.791-4,4v5c0,5.522,3.582,10,8,10s8-4.478,8-10v-5
		C24.002,2.802,22.211,1.011,20.002,1.011z"/>
	<path opacity="0.1" d="M21.002,19.151V17.81c-1.37,1.375-3.106,2.201-5,2.201s-3.63-0.826-5-2.201v1.342
		c1.432,1.173,3.15,1.859,5,1.859S19.57,20.324,21.002,19.151z"/>
	<path fill="#434854" d="M25.002,5.011c0-0.749-0.417-1.395-1.026-1.737c0.012-0.087,0.026-0.173,0.026-0.263c0-1.104-0.896-2-2-2
		c-0.415,0-0.8,0.127-1.119,0.343c-0.273-0.78-1.008-1.343-1.881-1.343c-0.601,0-1.134,0.271-1.5,0.689
		c-0.366-0.419-0.899-0.689-1.5-0.689s-1.134,0.271-1.5,0.689c-0.366-0.419-0.899-0.689-1.5-0.689c-0.873,0-1.607,0.562-1.881,1.343
		c-0.319-0.216-0.704-0.343-1.119-0.343c-1.104,0-2,0.896-2,2c0,0.09,0.015,0.176,0.026,0.263C7.419,3.616,7.002,4.262,7.002,5.011
		c0,2.016,0.402,3.652,0.994,4c-0.032,2.291-0.104,1.896,2.006,2.645V5.011c0,0,2-2,6-2s6,2,6,2v6.645
		c2.109-0.748,2.006-2.645,2.006-2.645S25.002,7.026,25.002,5.011z"/>
	<ellipse fill="#EACF60" cx="24.002" cy="11.511" rx="1" ry="2.5"/>
	<ellipse fill="#EACF60" cx="8.002" cy="11.511" rx="1" ry="2.5"/>
	<g>
		<path fill="#EAEAEA" d="M21.002,16.116v-0.105h-0.105C20.932,16.046,20.967,16.081,21.002,16.116z"/>
		<path fill="#EAEAEA" d="M11.107,16.011h-0.105v0.105C11.037,16.081,11.072,16.046,11.107,16.011z"/>
		<path fill="#EAEAEA" d="M22.994,21.167c-0.084,3.793-3.179,6.844-6.992,6.844S9.094,24.96,9.01,21.167
			c-4.455,0.674-9.008,3.524-9.008,7.844c0,1.657,1.343,3,3,3h26c1.657,0,3-1.343,3-3C32.002,24.691,27.449,21.841,22.994,21.167z"
			/>
	</g>
	<g>
		<path fill="#84BF56" d="M11.002,21.011c-4.971,0-11,3.029-11,8c0,1.657,1.343,3,3,3h11v-7.338
			C12.237,24.056,11.002,22.65,11.002,21.011z"/>
		<path fill="#84BF56" d="M21.002,21.011c0,1.64-1.235,3.045-3,3.662v7.338h11c1.657,0,3-1.343,3-3
			C32.002,24.04,25.973,21.011,21.002,21.011z"/>
	</g>
	<polygon fill="#84BF56" points="11.002,19.011 9.002,21.166 14.002,27.011 14.002,23.011 	"/>
	<polygon fill="#84BF56" points="21.002,19.011 23.002,21.166 18.002,27.011 18.002,23.011 	"/>
	<path fill="#434854" d="M21.002,8.011h-3c-0.553,0-1,0.447-1,1v0.184c-0.314-0.111-0.647-0.184-1-0.184s-0.686,0.072-1,0.184V9.011
		c0-0.553-0.447-1-1-1h-3c-0.553,0-1,0.447-1,1v2c0,0.553,0.447,1,1,1h3c0.553,0,1-0.447,1-1v-0.723
		c0.295-0.172,0.634-0.277,1-0.277s0.705,0.105,1,0.277v0.723c0,0.553,0.447,1,1,1h3c0.553,0,1-0.447,1-1v-2
		C22.002,8.458,21.555,8.011,21.002,8.011z M14.002,11.011h-3v-2h3V11.011z M21.002,11.011h-3v-2h3V11.011z"/>
	<polygon opacity="0.15" points="11.002,19.011 9.002,21.166 14.002,27.011 14.002,23.011 	"/>
	<polygon opacity="0.15" points="21.002,19.011 23.002,21.166 18.002,27.011 18.002,23.011 	"/>
</g>
<g>
</g>
<g>
</g>
<g>
</g>
<g>
</g>
<g>
</g>
<g>
</g>
</svg>
